<svg width="24" height="24" viewBox="0 0 24 24" fill="none" xmlns="http://www.w3.org/2000/svg">
<path opacity="0.8" d="M12.9002 2.52L12.8702 2.59L9.9702 9.32H7.1202C6.4402 9.32 5.8002 9.45 5.2002 9.71L6.9502 5.53L6.9902 5.44L7.0502 5.28C7.0802 5.21 7.1002 5.15 7.1302 5.1C8.4402 2.07 9.9202 1.38 12.9002 2.52Z" fill="white"/>
<path d="M18.2902 9.51999C17.8402 9.38999 17.3702 9.31999 16.8802 9.31999H9.97021L12.8702 2.58999L12.9002 2.51999C13.0402 2.56999 13.1902 2.63999 13.3402 2.68999L15.5502 3.61999C16.7802 4.12999 17.6402 4.65999 18.1702 5.29999C18.2602 5.41999 18.3402 5.52999 18.4202 5.65999C18.5102 5.79999 18.5802 5.93999 18.6202 6.08999C18.6602 6.17999 18.6902 6.25999 18.7102 6.34999C18.9702 7.19999 18.8102 8.22999 18.2902 9.51999Z" fill="white"/>
<path opacity="0.4" d="M21.7602 14.2V16.15C21.7602 16.35 21.7502 16.55 21.7402 16.74C21.5502 20.24 19.6002 22 15.9002 22H8.10023C7.85023 22 7.62023 21.98 7.39023 21.95C4.21023 21.74 2.51023 20.04 2.29023 16.86C2.26023 16.62 2.24023 16.39 2.24023 16.15V14.2C2.24023 12.19 3.46023 10.46 5.20023 9.71001C5.80023 9.45001 6.44023 9.32001 7.12023 9.32001H16.8802C17.3702 9.32001 17.8402 9.39001 18.2902 9.52001C20.2902 10.13 21.7602 11.99 21.7602 14.2Z" fill="white"/>
<path opacity="0.6" d="M6.95023 5.53L5.20023 9.71C3.46023 10.46 2.24023 12.19 2.24023 14.2V11.27C2.24023 8.43 4.26023 6.06 6.95023 5.53Z" fill="white"/>
<path opacity="0.6" d="M21.76 11.27V14.2C21.76 11.99 20.29 10.13 18.29 9.52C18.81 8.23 18.97 7.2 18.71 6.35C18.69 6.26 18.66 6.18 18.62 6.09C20.49 7.06 21.76 9.03 21.76 11.27Z" fill="white"/>
<path d="M14.5 14.69H12.75V13C12.75 12.59 12.41 12.25 12 12.25C11.59 12.25 11.25 12.59 11.25 13V14.69H9.5C9.09 14.69 8.75 15.03 8.75 15.44C8.75 15.85 9.09 16.19 9.5 16.19H11.25V18C11.25 18.41 11.59 18.75 12 18.75C12.41 18.75 12.75 18.41 12.75 18V16.19H14.5C14.91 16.19 15.25 15.85 15.25 15.44C15.25 15.03 14.91 14.69 14.5 14.69Z" fill="white"/>
</svg>
