<svg width="25" height="24" viewBox="0 0 25 24" fill="none" xmlns="http://www.w3.org/2000/svg">
<path opacity="0.4" d="M20.34 6.82006L14.58 2.79006C13.01 1.69006 10.6 1.75006 9.09004 2.92006L4.08004 6.83006C3.08004 7.61006 2.29004 9.21006 2.29004 10.4701V17.3701C2.29004 19.9201 4.36004 22.0001 6.91004 22.0001H17.69C20.24 22.0001 22.31 19.9301 22.31 17.3801V10.6001C22.31 9.25006 21.44 7.59006 20.34 6.82006Z" fill="#FF5454"/>
<path d="M12.2998 18.75C11.8898 18.75 11.5498 18.41 11.5498 18V15C11.5498 14.59 11.8898 14.25 12.2998 14.25C12.7098 14.25 13.0498 14.59 13.0498 15V18C13.0498 18.41 12.7098 18.75 12.2998 18.75Z" fill="#FF5454"/>
</svg>
