<svg width="24" height="24" viewBox="0 0 24 24" fill="none" xmlns="http://www.w3.org/2000/svg">
<path opacity="0.4" d="M18 18.86H17.24C16.44 18.86 15.68 19.17 15.12 19.73L13.41 21.42C12.63 22.19 11.36 22.19 10.58 21.42L8.87 19.73C8.31 19.17 7.54 18.86 6.75 18.86H6C4.34 18.86 3 17.53 3 15.89V4.97998C3 3.33998 4.34 2.01001 6 2.01001H18C19.66 2.01001 21 3.33998 21 4.97998V15.89C21 17.52 19.66 18.86 18 18.86Z" fill="#FF5454"/>
<path d="M12.5401 5.90268C12.8101 6.09268 12.9601 6.41268 12.9601 6.79268L12.9601 8.74268C12.9601 8.87268 13.0101 8.99268 13.1101 9.07268C13.2101 9.15268 13.3401 9.19268 13.4801 9.17268L15.0401 8.93268C15.5001 8.83268 16.0301 9.14268 16.1801 9.60268C16.3401 10.0327 16.1202 10.5427 15.8202 10.7427L12.9401 12.6827L13.3001 12.6827C14.0001 12.6827 14.2901 12.9827 14.2901 13.7227L14.2901 14.2127C14.2901 14.9527 14.0001 15.2527 13.3001 15.2527L8.5201 15.2527C7.8201 15.2527 7.53011 14.9527 7.53011 14.2127L7.53011 13.7227C7.53011 13.0227 7.80015 12.7227 8.44015 12.6927L7.31014 11.2227C7.11014 11.0227 7.00015 10.5727 7.00015 10.2527L7.00015 8.40268C7.00015 7.76268 7.48015 7.12268 8.07015 6.98268L11.6302 5.81268C11.9502 5.68268 12.2801 5.71268 12.5401 5.90268Z" fill="#FF5454"/>
</svg>
