<svg width="25" height="24" viewBox="0 0 25 24" fill="none" xmlns="http://www.w3.org/2000/svg">
<path d="M7.0852 8.26582L7.0852 10.2458C7.0852 10.7058 7.22523 11.3758 7.61523 11.7658L8.80517 13.3058L9.99524 12.3858L8.74524 10.7758C8.65524 10.6558 8.59521 10.4358 8.59521 10.2458L8.59521 8.26582C8.59521 7.96582 8.85523 7.60581 9.11523 7.53581L12.9652 6.27582C13.0452 6.24582 13.1552 6.21582 13.2352 6.26582C13.2952 6.30582 13.3352 6.41582 13.3352 6.54582L13.3352 8.62582C13.3352 8.99582 13.4951 9.34582 13.7751 9.59582C14.0551 9.83583 14.4352 9.94581 14.8152 9.89581L16.4852 9.63582C16.6152 9.60582 16.7652 9.69582 16.8052 9.80582C16.8352 9.89582 16.7852 10.0458 16.7352 10.0858L13.5652 12.2158L14.4051 13.4658L17.5752 11.3358C18.2052 10.9158 18.4952 10.0258 18.2252 9.30582C17.9552 8.49582 17.0552 7.97582 16.2152 8.15582L14.8452 8.36581L14.8452 6.54582C14.8452 5.91582 14.5752 5.36581 14.1052 5.03581C13.6452 4.71581 13.0552 4.64583 12.4852 4.84582L8.7052 6.08582C7.8152 6.31581 7.0852 7.27582 7.0852 8.26582Z" fill="#6D6D6D"/>
<path d="M7.65503 13.9356L7.65503 14.4556C7.65503 16.0156 8.74502 16.2456 9.39502 16.2456L14.4851 16.2456C15.1351 16.2456 16.2251 16.0156 16.2251 14.4556L16.2251 13.9356C16.2251 12.3756 15.1351 12.1456 14.4851 12.1456L9.39502 12.1456C8.74502 12.1456 7.65503 12.3756 7.65503 13.9356ZM9.16504 14.7156C9.16504 14.6856 9.15503 14.6056 9.15503 14.4556L9.15503 13.9356C9.15503 13.7756 9.17506 13.6856 9.18506 13.6556C9.20506 13.6556 9.26502 13.6456 9.39502 13.6456L14.4851 13.6456C14.6151 13.6456 14.6851 13.6556 14.7051 13.6656C14.7051 13.6856 14.7151 13.7656 14.7151 13.9356L14.7151 14.4556C14.7151 14.6156 14.6951 14.7056 14.6851 14.7356C14.6651 14.7356 14.6051 14.7456 14.4751 14.7456L9.38501 14.7456C9.25501 14.7456 9.18503 14.7356 9.15503 14.7256C9.16503 14.7256 9.16504 14.7156 9.16504 14.7156Z" fill="#6D6D6D"/>
<path d="M12.6997 22.75C11.9997 22.75 11.2897 22.48 10.7597 21.95L9.04971 20.26C8.61971 19.84 8.0597 19.61 7.4597 19.61H6.69971C4.62971 19.61 2.94971 17.94 2.94971 15.89V4.97998C2.94971 2.92998 4.62971 1.26001 6.69971 1.26001H18.6997C20.7697 1.26001 22.4497 2.92998 22.4497 4.97998V15.89C22.4497 17.94 20.7697 19.61 18.6997 19.61H17.9397C17.3397 19.61 16.7697 19.84 16.3497 20.26L14.6397 21.95C14.1097 22.48 13.3997 22.75 12.6997 22.75ZM6.69971 2.75C5.45971 2.75 4.44971 3.74997 4.44971 4.96997V15.88C4.44971 17.11 5.45971 18.1 6.69971 18.1H7.4597C8.4597 18.1 9.39971 18.4899 10.1097 19.1899L11.8197 20.88C12.3097 21.36 13.0997 21.36 13.5897 20.88L15.2997 19.1899C16.0097 18.4899 16.9497 18.1 17.9497 18.1H18.6997C19.9397 18.1 20.9497 17.1 20.9497 15.88V4.96997C20.9497 3.73997 19.9397 2.75 18.6997 2.75H6.69971Z" fill="#6D6D6D"/>
</svg>
