<svg width="31" height="30" viewBox="0 0 31 30" fill="none" xmlns="http://www.w3.org/2000/svg">
<path d="M28.7005 14.239C28.5156 13.7459 27.8144 13.7151 27.5756 14.1774L26.859 15.6105C26.7126 15.911 26.3428 16.0266 26.0346 15.8725L25.2101 15.4564C24.9019 15.3023 24.7787 14.9402 24.9328 14.6397L25.6493 13.2065C25.8882 12.7365 25.4336 12.1972 24.9251 12.3436C24.1469 12.567 23.4611 13.0987 23.0759 13.8769C22.4749 15.0789 22.7599 16.4889 23.6845 17.3981L20.356 24.0475C19.0615 23.8549 17.7286 24.5098 17.1507 25.7118C16.7808 26.4746 16.7731 27.3298 17.0582 28.0695C17.2432 28.5626 17.9443 28.5935 18.1832 28.1312L18.8997 26.698C19.0461 26.3975 19.416 26.282 19.7242 26.4361L20.5486 26.8521C20.8568 27.0062 20.9801 27.3684 20.826 27.6689L20.1094 29.102C19.8706 29.572 20.3252 30.1114 20.8337 29.965C21.6119 29.7415 22.2976 29.2099 22.6829 28.4317C23.2839 27.2297 22.9988 25.8197 22.0742 24.9105L25.4028 18.261C26.6972 18.4537 28.0302 17.7987 28.6081 16.5967C28.9779 15.8339 28.9856 14.9864 28.7005 14.239Z" fill="#FF7300"/>
<path opacity="0.4" d="M25.6336 21.0654C25.1559 21.2966 24.9556 21.8745 25.1867 22.3522C25.3871 22.7683 25.4795 23.2306 25.4487 23.6929L24.7167 28.3082C24.632 28.8321 24.9941 29.3252 25.518 29.41C25.572 29.4177 25.6182 29.4254 25.6721 29.4254C26.1345 29.4254 26.5505 29.0864 26.6199 28.6087L27.3518 23.9471C27.3596 23.924 27.3595 23.9009 27.3595 23.8701C27.4212 23.0533 27.2671 22.2289 26.9127 21.4969C26.6892 21.0269 26.119 20.8343 25.6336 21.0654ZM19.9704 20.4876L20.0244 20.4953C20.0629 20.503 20.1091 20.503 20.1476 20.503C20.6254 20.503 21.0414 20.1485 21.1031 19.6631C21.1724 19.1392 20.7949 18.6538 20.2709 18.5844L19.2462 18.4534C19.223 18.4534 19.2076 18.4534 19.1845 18.4534C19.1614 18.4534 19.146 18.4457 19.1229 18.4457C19.1075 18.4457 19.0998 18.4457 19.0844 18.4457C19.0535 18.4457 19.0227 18.4534 18.9842 18.4534C18.9534 18.4611 18.9226 18.4611 18.8917 18.4689C18.8609 18.4766 18.8378 18.4843 18.807 18.492C18.7762 18.4997 18.7453 18.5151 18.7145 18.5305C18.6914 18.5382 18.6683 18.5536 18.6452 18.569C18.6144 18.5844 18.5835 18.6075 18.5604 18.623C18.5373 18.6384 18.5142 18.6538 18.4988 18.6769C18.4757 18.7 18.4448 18.7231 18.4217 18.7462C18.3986 18.7694 18.3832 18.7925 18.3678 18.8156C18.3447 18.8387 18.3293 18.8695 18.3139 18.8926C18.2984 18.9157 18.283 18.9466 18.2676 18.9697C18.2522 19.0005 18.2368 19.0313 18.2291 19.0621C18.2214 19.093 18.2137 19.1161 18.206 19.1469C18.1983 19.1777 18.1906 19.2162 18.1829 19.2471C18.1829 19.2625 18.1752 19.2702 18.1752 19.2856C18.1752 19.3087 18.1752 19.3241 18.1752 19.3472C18.1752 19.3703 18.1675 19.3858 18.1675 19.4089C18.1675 21.2273 16.6881 22.6989 14.8774 22.6989C13.0667 22.6989 11.5874 21.2195 11.5874 19.4089C11.5874 19.3858 11.5797 19.3703 11.5797 19.3472C11.5797 19.3241 11.5797 19.3087 11.5797 19.2856C11.5797 19.2702 11.572 19.2625 11.572 19.2471C11.5643 19.2162 11.5566 19.1777 11.5488 19.1469C11.5411 19.1161 11.5334 19.093 11.5257 19.0621C11.5103 19.0313 11.5026 19.0005 11.4872 18.9697C11.4718 18.9466 11.4641 18.9157 11.441 18.8926C11.4256 18.8618 11.4024 18.8387 11.387 18.8156C11.3716 18.7925 11.3485 18.7694 11.3331 18.7462C11.31 18.7231 11.2869 18.7 11.2638 18.6769C11.2406 18.6615 11.2252 18.6384 11.2021 18.623C11.1713 18.5998 11.1482 18.5844 11.1174 18.569C11.0942 18.5536 11.0711 18.5382 11.0403 18.5305C11.0095 18.5151 10.9787 18.5074 10.9479 18.492C10.917 18.4843 10.8939 18.4689 10.8631 18.4689C10.8323 18.4611 10.8015 18.4534 10.7706 18.4534C10.7398 18.4457 10.709 18.4457 10.6705 18.4457C10.6551 18.4457 10.6474 18.4457 10.6319 18.4457C10.6088 18.4457 10.5934 18.4534 10.5703 18.4534C10.5472 18.4534 10.5318 18.4534 10.5087 18.4534L9.68423 18.5613C8.59782 18.7 7.47289 18.8464 6.5714 18.9312C4.05956 19.1623 2.17954 21.3891 2.37987 23.8855C2.37987 23.9086 2.38757 23.9317 2.38757 23.9625L3.11955 28.6241C3.1966 29.1018 3.60497 29.4408 4.06727 29.4408C4.1135 29.4408 4.16743 29.4331 4.22137 29.4254C4.74531 29.3406 5.10745 28.8475 5.02269 28.3236L4.29071 23.7083C4.19825 22.2674 5.29237 20.9884 6.74091 20.8574C7.63469 20.7727 8.7134 20.6417 9.76898 20.503C10.2698 22.8607 12.3656 24.6406 14.8774 24.6406C17.3738 24.6252 19.4773 22.853 19.9704 20.4876Z" fill="#FF7300"/>
<path opacity="0.4" d="M8.06642 10.0859C7.98167 10.2323 7.92773 10.3941 7.92773 10.5713V12.1123C7.92773 12.6439 8.35922 13.0754 8.89086 13.0754C8.9448 13.0754 8.99103 13.0677 9.03726 13.06C9.33775 14.2235 9.82317 15.3099 10.455 16.2191C11.6338 17.8988 13.198 18.8234 14.8623 18.8234C17.4974 18.8234 19.8474 16.404 20.695 13.0523C20.7412 13.06 20.7874 13.0677 20.8336 13.0677C21.3653 13.0677 21.7968 12.6362 21.7968 12.1046V10.5636C21.7968 10.3864 21.7428 10.2169 21.6581 10.0782C21.7428 9.93177 21.7968 9.76997 21.7968 9.59275V7.35059C21.7968 4.02202 19.2002 1.25592 15.8408 0.801322C15.8716 0.747387 15.887 0.685747 15.887 0.624107C15.887 0.277381 15.4247 0 14.8623 0C14.2921 0 13.8375 0.277381 13.8375 0.624107C13.8375 0.685747 13.8606 0.747387 13.8837 0.801322C10.5243 1.25592 7.92773 4.01432 7.92773 7.35059V9.59275C7.93544 9.77767 7.98167 9.94718 8.06642 10.0859ZM19.0769 11.1183C18.8226 14.2543 16.8964 16.9125 14.87 16.9125C12.8512 16.9125 10.9943 14.3622 10.6784 11.311C10.925 11.257 11.1484 11.1106 11.2871 10.8795C11.5645 10.4326 12.8589 9.80079 14.8623 9.80079C16.6267 9.80079 17.9057 10.3016 18.3526 10.7639C18.553 10.972 18.8226 11.0644 19.0846 11.0567C19.0846 11.0721 19.0769 11.0952 19.0769 11.1183ZM14.87 2.67364C17.6284 2.67364 19.8782 4.77711 19.8782 7.3583V8.52175C18.7071 7.71273 16.7808 7.29666 14.87 7.29666C12.9591 7.29666 11.0329 7.71273 9.86169 8.52175V7.3583C9.86169 4.77711 12.1039 2.67364 14.87 2.67364Z" fill="#FF7300"/>
<path opacity="0.7" d="M11.5202 3.71288C9.49039 5.31936 9.47259 7.63982 9.71741 8.59925C11.3733 7.52827 13.8349 7.30514 14.8587 7.32745C16.2608 7.19357 18.5978 7.66213 19.9999 8.59925C20.5875 5.2792 18.0636 3.3782 16.7282 2.84271C15.8379 2.4634 13.55 2.1064 11.5202 3.71288Z" fill="#FF7300"/>
</svg>
