<svg width="31" height="30" viewBox="0 0 31 30" fill="none" xmlns="http://www.w3.org/2000/svg">
<path opacity="0.4" d="M28.25 12.1875C27.7375 12.1875 27.3125 11.7625 27.3125 11.25V8.75C27.3125 5.525 25.225 3.4375 22 3.4375H9.5C6.275 3.4375 4.1875 5.525 4.1875 8.75V11.25C4.1875 11.7625 3.7625 12.1875 3.25 12.1875C2.7375 12.1875 2.3125 11.7625 2.3125 11.25V8.75C2.3125 4.45 5.2 1.5625 9.5 1.5625H22C26.3 1.5625 29.1875 4.45 29.1875 8.75V11.25C29.1875 11.7625 28.7625 12.1875 28.25 12.1875Z" fill="#6200EE"/>
<path opacity="0.4" d="M22 28.4375H9.5C5.2 28.4375 2.3125 25.55 2.3125 21.25V18.75C2.3125 18.2375 2.7375 17.8125 3.25 17.8125C3.7625 17.8125 4.1875 18.2375 4.1875 18.75V21.25C4.1875 24.475 6.275 26.5625 9.5 26.5625H22C25.225 26.5625 27.3125 24.475 27.3125 21.25V18.75C27.3125 18.2375 27.7375 17.8125 28.25 17.8125C28.7625 17.8125 29.1875 18.2375 29.1875 18.75V21.25C29.1875 25.55 26.3 28.4375 22 28.4375Z" fill="#6200EE"/>
<path d="M21.2499 10.2625L16.5499 7.72501C16.0499 7.46251 15.4624 7.46251 14.9624 7.72501L10.2624 10.2625C9.92491 10.45 9.7124 10.8125 9.7124 11.225C9.7124 11.6375 9.92491 12 10.2624 12.1875L14.9624 14.7251C15.2124 14.8626 15.4874 14.925 15.7624 14.925C16.0374 14.925 16.3124 14.8626 16.5624 14.7251L21.2624 12.1875C21.5999 12 21.8124 11.6375 21.8124 11.225C21.7999 10.8125 21.5874 10.45 21.2499 10.2625Z" fill="#6200EE"/>
<path d="M14.1748 15.5875L9.7998 13.4C9.4623 13.2375 9.07479 13.25 8.74979 13.45C8.42479 13.65 8.2373 13.9875 8.2373 14.3625V18.5C8.2373 19.2125 8.63731 19.8625 9.27481 20.175L13.6498 22.3625C13.7998 22.4375 13.9623 22.475 14.1373 22.475C14.3373 22.475 14.5248 22.425 14.6998 22.3125C15.0248 22.1125 15.2123 21.775 15.2123 21.4V17.2625C15.2123 16.55 14.8248 15.9125 14.1748 15.5875Z" fill="#6200EE"/>
<path d="M22.7374 13.45C22.4124 13.25 22.0249 13.2375 21.6874 13.4L17.3124 15.5875C16.6749 15.9125 16.2749 16.55 16.2749 17.2625V21.4C16.2749 21.775 16.4624 22.1125 16.7874 22.3125C16.9624 22.425 17.1499 22.475 17.3499 22.475C17.5124 22.475 17.6749 22.4375 17.8374 22.3625L22.2124 20.175C22.8499 19.85 23.2499 19.2125 23.2499 18.5V14.3625C23.2499 13.9875 23.0624 13.65 22.7374 13.45Z" fill="#6200EE"/>
</svg>
