<svg width="31" height="30" viewBox="0 0 31 30" fill="none" xmlns="http://www.w3.org/2000/svg">
<path opacity="0.4" d="M22.6875 9.6375L22.5125 9.5375L20.775 8.5375L17.1875 6.4625C16.0875 5.825 14.4125 5.825 13.3125 6.4625L9.725 8.5375L7.9875 9.55L7.7625 9.675C5.525 11.175 5.375 11.45 5.375 13.8625V19.625C5.375 22.0375 5.525 22.3125 7.8125 23.85L13.3125 27.025C13.8625 27.35 14.55 27.5 15.25 27.5C15.9375 27.5 16.6375 27.35 17.1875 27.025L22.7375 23.8125C24.975 22.3125 25.125 22.0375 25.125 19.625V13.8625C25.125 11.45 24.975 11.175 22.6875 9.6375Z" fill="#FF5454"/>
<path d="M7.9873 9.55L9.7248 8.5375L13.1498 6.5625L13.3123 6.4625C14.4123 5.825 16.0873 5.825 17.1873 6.4625L17.3498 6.5625L20.7748 8.5375L22.5123 9.5375V6.8625C22.5123 4.05 20.9623 2.5 18.1498 2.5H12.3373C9.5248 2.5 7.9873 4.05 7.9873 6.8625V9.55Z" fill="#FF5454"/>
<path d="M18.8002 16.675L18.0252 17.625C17.9002 17.7625 17.8127 18.0375 17.8252 18.225L17.9002 19.45C17.9502 20.2 17.4127 20.5875 16.7127 20.3125L15.5752 19.8625C15.4002 19.8 15.1002 19.8 14.9252 19.8625L13.7877 20.3125C13.0877 20.5875 12.5502 20.2 12.6002 19.45L12.6752 18.225C12.6877 18.0375 12.6002 17.7625 12.4752 17.625L11.7002 16.675C11.2127 16.1 11.4252 15.4625 12.1502 15.275L13.3377 14.975C13.5252 14.925 13.7502 14.75 13.8502 14.5875L14.5127 13.5625C14.9252 12.925 15.5752 12.925 15.9877 13.5625L16.6502 14.5875C16.7502 14.75 16.9752 14.925 17.1627 14.975L18.3502 15.275C19.0752 15.4625 19.2877 16.1 18.8002 16.675Z" fill="#FF5454"/>
</svg>
