<svg width="31" height="30" viewBox="0 0 31 30" fill="none" xmlns="http://www.w3.org/2000/svg">
<path opacity="0.4" d="M27.4626 14.2375V21.725C27.4626 25.175 24.6626 27.975 21.2126 27.975H10.2876C6.8376 27.975 4.0376 25.175 4.0376 21.725V14.325C4.9876 15.35 6.3376 15.9375 7.8001 15.9375C9.3751 15.9375 10.8876 15.15 11.8376 13.8875C12.6876 15.15 14.1376 15.9375 15.7501 15.9375C17.3501 15.9375 18.7751 15.1875 19.6376 13.9375C20.6001 15.175 22.0876 15.9375 23.6376 15.9375C25.1501 15.9375 26.5251 15.325 27.4626 14.2375Z" fill="#006EFF"/>
<path d="M19.4877 1.5625H11.9877L11.0627 10.7625C10.9877 11.6125 11.1127 12.4125 11.4252 13.1375C12.1502 14.8375 13.8502 15.9375 15.7502 15.9375C17.6752 15.9375 19.3377 14.8625 20.0877 13.15C20.3127 12.6125 20.4502 11.9875 20.4627 11.35V11.1125L19.4877 1.5625Z" fill="#006EFF"/>
<path opacity="0.6" d="M28.7002 10.3375L28.3377 6.875C27.8127 3.1 26.1002 1.5625 22.4377 1.5625H17.6377L18.5627 10.9375C18.5752 11.0625 18.5877 11.2 18.5877 11.4375C18.6627 12.0875 18.8627 12.6875 19.1627 13.225C20.0627 14.875 21.8127 15.9375 23.6377 15.9375C25.3002 15.9375 26.8002 15.2 27.7377 13.9C28.4877 12.9 28.8252 11.6375 28.7002 10.3375Z" fill="#006EFF"/>
<path opacity="0.6" d="M8.98755 1.5625C5.31255 1.5625 3.61255 3.1 3.07505 6.9125L2.73755 10.35C2.61255 11.6875 2.97505 12.9875 3.76255 14C4.71255 15.2375 6.17505 15.9375 7.80005 15.9375C9.62505 15.9375 11.3751 14.875 12.2626 13.25C12.5876 12.6875 12.8001 12.0375 12.8626 11.3625L13.8376 1.575H8.98755V1.5625Z" fill="#006EFF"/>
<path d="M14.9374 20.825C13.3499 20.9875 12.1499 22.3375 12.1499 23.9375V27.975H19.3374V24.375C19.3499 21.7625 17.8124 20.525 14.9374 20.825Z" fill="#006EFF"/>
</svg>
