<svg width="24" height="24" viewBox="0 0 24 24" fill="none" xmlns="http://www.w3.org/2000/svg">
<path opacity="0.4" d="M16.19 2H7.82C4.17 2 2 4.17 2 7.81V16.18C2 19.82 4.17 21.99 7.81 21.99H16.18C19.82 21.99 21.99 19.82 21.99 16.18V7.81C22 4.17 19.83 2 16.19 2Z" fill="white"/>
<path d="M17.35 9.04998L15.01 16.59C14.45 18.38 11.94 18.41 11.35 16.63L10.65 14.56C10.46 13.99 10.01 13.53 9.43997 13.35L7.35997 12.65C5.58997 12.06 5.61997 9.52997 7.40997 8.98997L14.95 6.63997C16.43 6.18997 17.82 7.57998 17.35 9.04998Z" fill="white"/>
</svg>
