<svg width="31" height="30" viewBox="0 0 31 30" fill="none" xmlns="http://www.w3.org/2000/svg">
<g clip-path="url(#clip0_234_2158)">
<path opacity="0.4" d="M7.31439 16.6993C7.87356 16.6986 8.40965 16.4762 8.80504 16.0808C9.20044 15.6854 9.42285 15.1493 9.42349 14.5902V11.8785C9.42397 11.479 9.58284 11.0961 9.86526 10.8137C10.1477 10.5313 10.5306 10.3724 10.93 10.372H12.4365C12.5164 10.372 12.593 10.3402 12.6495 10.2837C12.706 10.2272 12.7378 10.1506 12.7378 10.0707C12.7378 9.99074 12.706 9.9141 12.6495 9.8576C12.593 9.80109 12.5164 9.76935 12.4365 9.76935H10.93C10.3708 9.76999 9.83473 9.9924 9.43934 10.3878C9.04394 10.7832 8.82153 11.3193 8.82089 11.8785V14.5902C8.82089 14.9897 8.66217 15.3729 8.37965 15.6554C8.09712 15.9379 7.71394 16.0967 7.31439 16.0967C6.91484 16.0967 6.53166 15.9379 6.24913 15.6554C5.96661 15.3729 5.80789 14.9897 5.80789 14.5902V7.05765C5.80789 6.97774 5.77614 6.9011 5.71964 6.8446C5.66313 6.78809 5.5865 6.75635 5.50659 6.75635C5.42668 6.75635 5.35004 6.78809 5.29354 6.8446C5.23703 6.9011 5.20529 6.97774 5.20529 7.05765V14.5902C5.20593 15.1493 5.42834 15.6854 5.82373 16.0808C6.21913 16.4762 6.75522 16.6986 7.31439 16.6993Z" fill="#549EFF"/>
<path d="M13.0791 8.56421C13.159 8.56421 13.2356 8.59595 13.2921 8.65246C13.3486 8.70896 13.3804 8.7856 13.3804 8.86551V11.2759C13.3804 11.3558 13.3486 11.4325 13.2921 11.489C13.2356 11.5455 13.159 11.5772 13.0791 11.5772C12.6795 11.5772 12.2963 11.4185 12.0138 11.136C11.7313 10.8534 11.5726 10.4703 11.5726 10.0707C11.5726 9.67116 11.7313 9.28798 12.0138 9.00545C12.2963 8.72293 12.6795 8.56421 13.0791 8.56421Z" fill="#549EFF"/>
<path opacity="0.4" d="M13.8687 2.01352C13.9833 1.97259 16.7307 1 21.5 1C26.2693 1 29.0167 1.97259 29.1313 2.01352C29.2422 2.05351 29.3354 2.11502 29.4005 2.19114C29.4656 2.26725 29.5001 2.35497 29.5 2.44444V26.5185C29.5 26.6462 29.4298 26.7687 29.3047 26.859C29.1797 26.9493 29.0101 27 28.8333 27H14.1667C13.9899 27 13.8203 26.9493 13.6953 26.859C13.5702 26.7687 13.5 26.6462 13.5 26.5185V2.44444C13.4999 2.35497 13.5344 2.26725 13.5995 2.19114C13.6646 2.11502 13.7578 2.05351 13.8687 2.01352ZM21.5 22.1852C23.3307 22.1852 25.4607 21.149 25.4647 19.8124L25.5 7.24481C25.5002 7.17961 25.4825 7.11502 25.4481 7.05474C25.4137 6.99446 25.3631 6.93967 25.2994 6.89352C25.2356 6.84737 25.1598 6.81075 25.0764 6.78577C24.993 6.76079 24.9036 6.74793 24.8133 6.74793H18.1867C18.0048 6.74793 17.8303 6.80004 17.7016 6.89284C17.5729 6.98563 17.5004 7.11153 17.5 7.24289L17.466 19.8033C17.4613 21.0855 19.5 22.1852 21.5 22.1852Z" fill="#20A760"/>
<path d="M13.7 26H29.3C29.9627 26 30.5 26.4477 30.5 27V28C30.5 28.5523 29.9627 29 29.3 29H13.7C13.0373 29 12.5 28.5523 12.5 28V27C12.5 26.4477 13.0373 26 13.7 26Z" fill="#20A760"/>
<path opacity="0.3" d="M6.10886 4.5065C6.18877 4.5065 6.2654 4.47476 6.32191 4.41825C6.37841 4.36175 6.41016 4.28511 6.41016 4.2052V3.3013C6.41016 3.22139 6.37841 3.14475 6.32191 3.08825C6.2654 3.03174 6.18877 3 6.10886 3C6.02895 3 5.95231 3.03174 5.8958 3.08825C5.8393 3.14475 5.80756 3.22139 5.80756 3.3013V4.2052C5.80756 4.28511 5.8393 4.36175 5.8958 4.41825C5.95231 4.47476 6.02895 4.5065 6.10886 4.5065ZM4.90366 4.5065C4.98357 4.5065 5.0602 4.47476 5.11671 4.41825C5.17321 4.36175 5.20496 4.28511 5.20496 4.2052V3.3013C5.20496 3.22139 5.17321 3.14475 5.11671 3.08825C5.0602 3.03174 4.98357 3 4.90366 3C4.82375 3 4.74711 3.03174 4.6906 3.08825C4.6341 3.14475 4.60236 3.22139 4.60236 3.3013V4.2052C4.60236 4.28511 4.6341 4.36175 4.6906 4.41825C4.74711 4.47476 4.82375 4.5065 4.90366 4.5065Z" fill="#549EFF"/>
<path d="M4.30148 4.3457H6.71188C6.79179 4.3457 6.86843 4.37745 6.92494 4.43395C6.98144 4.49046 7.01318 4.56709 7.01318 4.647V5.8522C7.01318 6.25175 6.85446 6.63494 6.57194 6.91746C6.28942 7.19999 5.90623 7.35871 5.50668 7.35871C5.10713 7.35871 4.72395 7.19999 4.44143 6.91746C4.1589 6.63494 4.00018 6.25175 4.00018 5.8522V4.647C4.00018 4.56709 4.03193 4.49046 4.08843 4.43395C4.14493 4.37745 4.22157 4.3457 4.30148 4.3457Z" fill="#549EFF"/>
<path opacity="0.4" d="M11.8733 22.2683C11.3409 20.0146 9.29747 19 7.50253 19C7.50253 19 7.50253 19 7.49746 19C5.7076 19 3.65915 20.0098 3.12675 22.2634C2.53351 24.7805 4.13577 26.9122 5.58591 28.2537C6.12338 28.7512 6.81296 29 7.50253 29C8.19211 29 8.88169 28.7512 9.41409 28.2537C10.8642 26.9122 12.4665 24.7854 11.8733 22.2683Z" fill="#6CCF9B"/>
<path d="M7.5 25C8.32843 25 9 24.3284 9 23.5C9 22.6716 8.32843 22 7.5 22C6.67157 22 6 22.6716 6 23.5C6 24.3284 6.67157 25 7.5 25Z" fill="#6CCF9B"/>
</g>
<defs>
<clipPath id="clip0_234_2158">
<rect width="30" height="30" fill="white" transform="matrix(-1 0 0 1 30.75 0)"/>
</clipPath>
</defs>
</svg>
