<svg width="20" height="20" viewBox="0 0 20 20" fill="none" xmlns="http://www.w3.org/2000/svg">
<path opacity="0.4" d="M17.1834 7.04171C16.3084 3.19171 12.9501 1.45837 10.0001 1.45837C10.0001 1.45837 10.0001 1.45837 9.99175 1.45837C7.05008 1.45837 3.68341 3.18337 2.80841 7.03337C1.83341 11.3334 4.46675 14.975 6.85008 17.2667C7.73341 18.1167 8.86675 18.5417 10.0001 18.5417C11.1334 18.5417 12.2667 18.1167 13.1417 17.2667C15.5251 14.975 18.1584 11.3417 17.1834 7.04171Z" fill="#6E6E6E"/>
<path d="M10 11.2167C11.4497 11.2167 12.625 10.0414 12.625 8.59168C12.625 7.14193 11.4497 5.96667 10 5.96667C8.55025 5.96667 7.375 7.14193 7.375 8.59168C7.375 10.0414 8.55025 11.2167 10 11.2167Z" fill="#6E6E6E"/>
</svg>
