<svg width="31" height="30" viewBox="0 0 31 30" fill="none" xmlns="http://www.w3.org/2000/svg">
<path opacity="0.4" d="M19.7095 7.08673C19.2678 7.88548 18.6205 8.55154 17.8347 9.01583C17.0488 9.48012 16.1531 9.72575 15.2404 9.72724C14.3276 9.72874 13.4311 9.48604 12.6438 9.02432C11.8564 8.5626 11.2069 7.89866 10.7626 7.10136C10.6939 7.15115 10.6302 7.2075 10.5724 7.26962C9.96003 7.87939 9.47465 8.60459 9.1444 9.40322C8.81415 10.2018 8.64559 11.0581 8.64847 11.9223V19.2378C8.65021 19.8193 8.88199 20.3765 9.29319 20.7877C9.70439 21.1989 10.2616 21.4307 10.8431 21.4324V19.406C10.6138 19.2004 10.4302 18.949 10.3042 18.668C10.1782 18.387 10.1126 18.0826 10.1116 17.7747V16.3116C10.1116 14.9534 10.6511 13.6509 11.6114 12.6906C12.5718 11.7302 13.8743 11.1907 15.2324 11.1907C16.5905 11.1907 17.893 11.7302 18.8534 12.6906C19.8137 13.6509 20.3533 14.9534 20.3533 16.3116V17.7747C20.3523 18.0826 20.2866 18.387 20.1606 18.668C20.0346 18.949 19.851 19.2004 19.6217 19.406V21.4324C20.2032 21.4307 20.7604 21.1989 21.1716 20.7877C21.5828 20.3765 21.8146 19.8193 21.8163 19.2378V11.9223C21.8192 11.0143 21.6334 10.1156 21.2707 9.28325C20.908 8.45086 20.3764 7.70288 19.7095 7.08673Z" fill="#FF7300"/>
<path d="M21.0848 3.87508H18.8162C18.648 3.04862 18.1993 2.30569 17.5461 1.77209C16.8929 1.2385 16.0754 0.947021 15.232 0.947021C14.3886 0.947021 13.5711 1.2385 12.9179 1.77209C12.2647 2.30569 11.816 3.04862 11.6478 3.87508H9.37999C9.18597 3.87508 8.9999 3.95216 8.8627 4.08935C8.72551 4.22654 8.64844 4.41261 8.64844 4.60663C8.64844 4.80065 8.72551 4.98672 8.8627 5.12392C8.9999 5.26111 9.18597 5.33818 9.37999 5.33818H11.6485C11.8168 6.16465 12.2655 6.90758 12.9186 7.44117C13.5718 7.97477 14.3893 8.26624 15.2327 8.26624C16.0762 8.26624 16.8937 7.97477 17.5468 7.44117C18.2 6.90758 18.6487 6.16465 18.817 5.33818H21.0848C21.2788 5.33818 21.4649 5.26111 21.602 5.12392C21.7392 4.98672 21.8163 4.80065 21.8163 4.60663C21.8163 4.41261 21.7392 4.22654 21.602 4.08935C21.4649 3.95216 21.2788 3.87508 21.0848 3.87508Z" fill="#FF7300"/>
<path d="M18.159 19.9692V21.4323C18.159 22.2083 17.8507 22.9526 17.302 23.5014C16.7532 24.0502 16.0089 24.3585 15.2328 24.3585C14.4568 24.3585 13.7125 24.0502 13.1637 23.5014C12.6149 22.9526 12.3066 22.2083 12.3066 21.4323V19.9692H18.159Z" fill="#FF7300"/>
<path opacity="0.6" d="M15.2325 12.6537C14.2627 12.6549 13.333 13.0406 12.6473 13.7264C11.9616 14.4121 11.5759 15.3418 11.5747 16.3115V17.7746C11.5747 17.9686 11.6518 18.1547 11.789 18.2919C11.9262 18.4291 12.1122 18.5061 12.3063 18.5061H18.1586C18.3527 18.5061 18.5387 18.4291 18.6759 18.2919C18.8131 18.1547 18.8902 17.9686 18.8902 17.7746V16.3115C18.889 15.3418 18.5033 14.4121 17.8176 13.7264C17.1319 13.0406 16.2022 12.6549 15.2325 12.6537Z" fill="#FF7300"/>
<path d="M15.1013 29.2221C14.6306 29.2221 14.2402 28.8317 14.2402 28.361V27.213C14.2402 26.7423 14.6306 26.3519 15.1013 26.3519C15.572 26.3519 15.9623 26.7423 15.9623 27.213V28.361C15.9623 28.8317 15.572 29.2221 15.1013 29.2221Z" fill="#FF7300"/>
<path d="M26.5146 29.222C26.1243 29.222 25.7799 28.9579 25.6765 28.5676L22.6534 18.8086C22.5386 18.3494 22.8142 17.8787 23.2849 17.7639C23.7441 17.6491 24.2148 17.9246 24.3296 18.3953L27.3527 28.1543C27.4675 28.6135 27.192 29.0842 26.7213 29.199C26.6524 29.2105 26.5835 29.222 26.5146 29.222Z" fill="#FF7300"/>
<path d="M3.92142 29.222C4.31176 29.222 4.65618 28.9579 4.7595 28.5676L7.78261 18.8086C7.89742 18.3494 7.62188 17.8787 7.15117 17.7639C6.69195 17.6491 6.22126 17.9246 6.10645 18.3953L3.08334 28.1543C2.96853 28.6135 3.24407 29.0842 3.71478 29.199C3.78366 29.2105 3.85254 29.222 3.92142 29.222Z" fill="#FF7300"/>
</svg>
