<svg width="25" height="24" viewBox="0 0 25 24" fill="none" xmlns="http://www.w3.org/2000/svg">
<path d="M12.0996 22.81C11.4096 22.81 10.7596 22.46 10.2996 21.85L8.79961 19.85C8.76961 19.81 8.64961 19.75 8.58961 19.75H8.09961C3.92961 19.75 1.34961 18.62 1.34961 13V8C1.34961 3.58 3.67961 1.25 8.09961 1.25H14.0996C14.5096 1.25 14.8496 1.59 14.8496 2C14.8496 2.41 14.5096 2.75 14.0996 2.75H8.09961C4.51961 2.75 2.84961 4.42 2.84961 8V13C2.84961 17.52 4.39961 18.25 8.09961 18.25H8.59961C9.10961 18.25 9.68961 18.54 9.99961 18.95L11.4996 20.95C11.8496 21.41 12.3496 21.41 12.6996 20.95L14.1996 18.95C14.5296 18.51 15.0496 18.25 15.5996 18.25H16.0996C19.6796 18.25 21.3496 16.58 21.3496 13V10C21.3496 9.59 21.6896 9.25 22.0996 9.25C22.5096 9.25 22.8496 9.59 22.8496 10V13C22.8496 17.42 20.5196 19.75 16.0996 19.75H15.5996C15.5196 19.75 15.4496 19.79 15.3996 19.85L13.8996 21.85C13.4396 22.46 12.7896 22.81 12.0996 22.81Z" fill="#6D6D6D"/>
<path d="M12.0996 12C11.5396 12 11.0996 11.55 11.0996 11C11.0996 10.45 11.5496 10 12.0996 10C12.6496 10 13.0996 10.45 13.0996 11C13.0996 11.55 12.6596 12 12.0996 12Z" fill="#6D6D6D"/>
<path d="M16.0996 12C15.5396 12 15.0996 11.55 15.0996 11C15.0996 10.45 15.5496 10 16.0996 10C16.6496 10 17.0996 10.45 17.0996 11C17.0996 11.55 16.6596 12 16.0996 12Z" fill="#6D6D6D"/>
<path d="M8.09961 12C7.53961 12 7.09961 11.55 7.09961 11C7.09961 10.45 7.54961 10 8.09961 10C8.64961 10 9.09961 10.45 9.09961 11C9.09961 11.55 8.65961 12 8.09961 12Z" fill="#6D6D6D"/>
<path d="M19.5996 7.75C17.8096 7.75 16.3496 6.29 16.3496 4.5C16.3496 2.71 17.8096 1.25 19.5996 1.25C21.3896 1.25 22.8496 2.71 22.8496 4.5C22.8496 6.29 21.3896 7.75 19.5996 7.75ZM19.5996 2.75C18.6396 2.75 17.8496 3.54 17.8496 4.5C17.8496 5.46 18.6396 6.25 19.5996 6.25C20.5596 6.25 21.3496 5.46 21.3496 4.5C21.3496 3.54 20.5596 2.75 19.5996 2.75Z" fill="#6D6D6D"/>
</svg>
