<svg width="25" height="24" viewBox="0 0 25 24" fill="none" xmlns="http://www.w3.org/2000/svg">
<path d="M12.0996 2V9L14.0996 7" stroke="#6D6D6D" stroke-width="1.5" stroke-linecap="round" stroke-linejoin="round"/>
<path d="M12.0996 9L10.0996 7" stroke="#6D6D6D" stroke-width="1.5" stroke-linecap="round" stroke-linejoin="round"/>
<path d="M2.07959 13H6.48959C6.86959 13 7.20959 13.21 7.37959 13.55L8.54959 15.89C8.88959 16.57 9.57959 17 10.3396 17H13.8696C14.6296 17 15.3196 16.57 15.6596 15.89L16.8296 13.55C16.9996 13.21 17.3496 13 17.7196 13H22.0796" stroke="#6D6D6D" stroke-width="1.5" stroke-linecap="round" stroke-linejoin="round"/>
<path d="M7.09961 4.13C3.55961 4.65 2.09961 6.73 2.09961 11V15C2.09961 20 4.09961 22 9.09961 22H15.0996C20.0996 22 22.0996 20 22.0996 15V11C22.0996 6.73 20.6396 4.65 17.0996 4.13" stroke="#6D6D6D" stroke-width="1.5" stroke-linecap="round" stroke-linejoin="round"/>
</svg>
