{
    "asset": {
        "generator": "https://3dviewer.net",
        "version": "2.0"
    },
    "scene": 0,
    "scenes": [
        {
            "nodes": [
                0
            ]
        }
    ],
    "nodes": [
        {
            "mesh": 0
        }
    ],
    "materials": [
        {
            "name": "None",
            "pbrMetallicRoughness": {
                "baseColorFactor": [
                    1,
                    0.5209955731953768,
                    0,
                    1
                ]
            },
            "emissiveFactor": [
                0,
                0,
                0
            ],
            "doubleSided": true,
            "alphaMode": "OPAQUE"
        }
    ],
    "meshes": [
        {
            "name": "STL File created by netfabb - http://www.netfabb.com UNITS=MM",
            "primitives": [
                {
                    "attributes": {
                        "POSITION": 1,
                        "NORMAL": 2
                    },
                    "mode": 4,
                    "material": 0,
                    "indices": 0
                }
            ]
        }
    ],
    "buffers": [
        {
            "uri": "model.bin",
            "byteLength": 29731968
        }
    ],
    "bufferViews": [
        {
            "buffer": 0,
            "byteOffset": 0,
            "byteLength": 4247424,
            "target": 34963
        },
        {
            "buffer": 0,
            "byteOffset": 4247424,
            "byteLength": 12742272,
            "target": 34962
        },
        {
            "buffer": 0,
            "byteOffset": 16989696,
            "byteLength": 12742272,
            "target": 34962
        }
    ],
    "accessors": [
        {
            "bufferView": 0,
            "byteOffset": 0,
            "componentType": 5125,
            "count": 1061856,
            "type": "SCALAR"
        },
        {
            "bufferView": 1,
            "byteOffset": 0,
            "componentType": 5126,
            "count": 1061856,
            "min": [
                -8.970500946044922,
                -4.71250057220459,
                -3.561000108718872
            ],
            "max": [
                8.970500946044922,
                4.71250057220459,
                3.561000108718872
            ],
            "type": "VEC3"
        },
        {
            "bufferView": 2,
            "byteOffset": 0,
            "componentType": 5126,
            "count": 1061856,
            "type": "VEC3"
        }
    ]
}